<svg width="507" height="365" viewBox="0 0 507 365" fill="none" xmlns="http://www.w3.org/2000/svg">
<path d="M195.5 342.5C195.5 342.5 180 342.5 167.5 342.5C157.09 342.5 61.0912 240.591 46.5 226C31.9088 211.409 23.0001 204.5 23.0001 183.5C23.0001 162.5 32.2415 155.5 46.5 139.5C60.7585 123.5 158.743 23.0001 167.5 23.0001C178 23.0001 195.5 23.0001 195.5 23.0001" stroke="#281D1D" stroke-width="45" stroke-miterlimit="1.30541" stroke-linecap="square"/>
<path d="M312 342.5C312 342.5 327.5 342.5 340 342.5C350.41 342.5 446.409 240.591 461 226C475.591 211.409 484.5 204.5 484.5 183.5C484.5 162.5 475.259 155.5 461 139.5C446.741 123.5 348.757 23 340 23C329.5 23 312 23 312 23" stroke="#281D1D" stroke-width="45" stroke-miterlimit="1.30541" stroke-linecap="round"/>
<path d="M276 269.5C276 269.5 359 187 359 182C359 177 276 96 276 96" stroke="#35C641" stroke-width="45" stroke-linecap="round"/>
</svg>
